<svg xmlns="http://www.w3.org/2000/svg" xmlns:xlink="http://www.w3.org/1999/xlink" width="450" zoomAndPan="magnify" viewBox="0 0 337.5 135.000003" height="180" preserveAspectRatio="xMidYMid meet" version="1.0"><defs><g/><clipPath id="1ee41790de"><path d="M 78 3 L 308.847656 3 L 308.847656 85.207031 L 78 85.207031 Z M 78 3 " clip-rule="nonzero"/></clipPath><clipPath id="d2aa4abc34"><path d="M 195 29 L 230.847656 29 L 230.847656 77 L 195 77 Z M 195 29 " clip-rule="nonzero"/></clipPath><clipPath id="84761c6678"><rect x="0" width="231" y="0" height="83"/></clipPath><clipPath id="4d6eb2aaab"><path d="M 0.507812 0.746094 L 67 0.746094 L 67 77.191406 L 0.507812 77.191406 Z M 0.507812 0.746094 " clip-rule="nonzero"/></clipPath><clipPath id="67c5ca5da6"><path d="M 17 36.664062 L 68 36.664062 L 68 59.890625 L 17 59.890625 Z M 17 36.664062 " clip-rule="nonzero"/></clipPath><clipPath id="2b7070baaf"><rect x="0" width="309" y="0" height="86"/></clipPath></defs><g transform="matrix(1, 0, 0, 1, 14, 27)"><g clip-path="url(#2b7070baaf)"><g clip-path="url(#1ee41790de)"><g transform="matrix(1, 0, 0, 1, 78, 3)"><g clip-path="url(#84761c6678)"><g fill="#131618" fill-opacity="1"><g transform="translate(0.677566, 61.755247)"><g><path d="M 12.078125 -42.765625 L 12.078125 0 L 3.984375 0 L 3.984375 -42.765625 Z M 12.078125 -42.765625 "/></g></g></g><g fill="#131618" fill-opacity="1"><g transform="translate(16.740087, 61.755247)"><g><path d="M 33.75 -16.703125 C 33.75 -15.546875 33.671875 -14.503906 33.515625 -13.578125 L 10.109375 -13.578125 C 10.304688 -11.265625 11.113281 -9.453125 12.53125 -8.140625 C 13.957031 -6.835938 15.710938 -6.1875 17.796875 -6.1875 C 20.796875 -6.1875 22.929688 -7.472656 24.203125 -10.046875 L 32.9375 -10.046875 C 32.007812 -6.972656 30.234375 -4.441406 27.609375 -2.453125 C 24.992188 -0.472656 21.78125 0.515625 17.96875 0.515625 C 14.882812 0.515625 12.117188 -0.164062 9.671875 -1.53125 C 7.234375 -2.894531 5.328125 -4.828125 3.953125 -7.328125 C 2.585938 -9.835938 1.90625 -12.726562 1.90625 -16 C 1.90625 -19.3125 2.578125 -22.21875 3.921875 -24.71875 C 5.273438 -27.226562 7.164062 -29.15625 9.59375 -30.5 C 12.019531 -31.851562 14.8125 -32.53125 17.96875 -32.53125 C 21.007812 -32.53125 23.734375 -31.875 26.140625 -30.5625 C 28.546875 -29.257812 30.414062 -27.398438 31.75 -24.984375 C 33.082031 -22.578125 33.75 -19.816406 33.75 -16.703125 Z M 25.359375 -19.015625 C 25.328125 -21.085938 24.578125 -22.75 23.109375 -24 C 21.648438 -25.257812 19.859375 -25.890625 17.734375 -25.890625 C 15.734375 -25.890625 14.046875 -25.28125 12.671875 -24.0625 C 11.304688 -22.851562 10.472656 -21.171875 10.171875 -19.015625 Z M 25.359375 -19.015625 "/></g></g></g><g fill="#131618" fill-opacity="1"><g transform="translate(52.389629, 61.755247)"><g><path d="M 33.75 -16.703125 C 33.75 -15.546875 33.671875 -14.503906 33.515625 -13.578125 L 10.109375 -13.578125 C 10.304688 -11.265625 11.113281 -9.453125 12.53125 -8.140625 C 13.957031 -6.835938 15.710938 -6.1875 17.796875 -6.1875 C 20.796875 -6.1875 22.929688 -7.472656 24.203125 -10.046875 L 32.9375 -10.046875 C 32.007812 -6.972656 30.234375 -4.441406 27.609375 -2.453125 C 24.992188 -0.472656 21.78125 0.515625 17.96875 0.515625 C 14.882812 0.515625 12.117188 -0.164062 9.671875 -1.53125 C 7.234375 -2.894531 5.328125 -4.828125 3.953125 -7.328125 C 2.585938 -9.835938 1.90625 -12.726562 1.90625 -16 C 1.90625 -19.3125 2.578125 -22.21875 3.921875 -24.71875 C 5.273438 -27.226562 7.164062 -29.15625 9.59375 -30.5 C 12.019531 -31.851562 14.8125 -32.53125 17.96875 -32.53125 C 21.007812 -32.53125 23.734375 -31.875 26.140625 -30.5625 C 28.546875 -29.257812 30.414062 -27.398438 31.75 -24.984375 C 33.082031 -22.578125 33.75 -19.816406 33.75 -16.703125 Z M 25.359375 -19.015625 C 25.328125 -21.085938 24.578125 -22.75 23.109375 -24 C 21.648438 -25.257812 19.859375 -25.890625 17.734375 -25.890625 C 15.734375 -25.890625 14.046875 -25.28125 12.671875 -24.0625 C 11.304688 -22.851562 10.472656 -21.171875 10.171875 -19.015625 Z M 25.359375 -19.015625 "/></g></g></g><g fill="#131618" fill-opacity="1"><g transform="translate(88.039172, 61.755247)"><g><path d="M 21.71875 -32.46875 C 25.539062 -32.46875 28.625 -31.265625 30.96875 -28.859375 C 33.320312 -26.453125 34.5 -23.09375 34.5 -18.78125 L 34.5 0 L 26.40625 0 L 26.40625 -17.6875 C 26.40625 -20.226562 25.769531 -22.179688 24.5 -23.546875 C 23.226562 -24.910156 21.492188 -25.59375 19.296875 -25.59375 C 17.066406 -25.59375 15.304688 -24.910156 14.015625 -23.546875 C 12.722656 -22.179688 12.078125 -20.226562 12.078125 -17.6875 L 12.078125 0 L 3.984375 0 L 3.984375 -32.015625 L 12.078125 -32.015625 L 12.078125 -28.03125 C 13.148438 -29.414062 14.523438 -30.5 16.203125 -31.28125 C 17.878906 -32.070312 19.71875 -32.46875 21.71875 -32.46875 Z M 21.71875 -32.46875 "/></g></g></g><g fill="#1156fc" fill-opacity="1"><g transform="translate(126.242797, 61.755247)"><g><path d="M 22.9375 0 L 12.078125 -13.640625 L 12.078125 0 L 3.984375 0 L 3.984375 -42.765625 L 12.078125 -42.765625 L 12.078125 -18.4375 L 22.828125 -32.015625 L 33.34375 -32.015625 L 19.234375 -15.953125 L 33.453125 0 Z M 22.9375 0 "/></g></g></g><g fill="#1156fc" fill-opacity="1"><g transform="translate(159.985641, 61.755247)"><g><path d="M 33.75 -16.703125 C 33.75 -15.546875 33.671875 -14.503906 33.515625 -13.578125 L 10.109375 -13.578125 C 10.304688 -11.265625 11.113281 -9.453125 12.53125 -8.140625 C 13.957031 -6.835938 15.710938 -6.1875 17.796875 -6.1875 C 20.796875 -6.1875 22.929688 -7.472656 24.203125 -10.046875 L 32.9375 -10.046875 C 32.007812 -6.972656 30.234375 -4.441406 27.609375 -2.453125 C 24.992188 -0.472656 21.78125 0.515625 17.96875 0.515625 C 14.882812 0.515625 12.117188 -0.164062 9.671875 -1.53125 C 7.234375 -2.894531 5.328125 -4.828125 3.953125 -7.328125 C 2.585938 -9.835938 1.90625 -12.726562 1.90625 -16 C 1.90625 -19.3125 2.578125 -22.21875 3.921875 -24.71875 C 5.273438 -27.226562 7.164062 -29.15625 9.59375 -30.5 C 12.019531 -31.851562 14.8125 -32.53125 17.96875 -32.53125 C 21.007812 -32.53125 23.734375 -31.875 26.140625 -30.5625 C 28.546875 -29.257812 30.414062 -27.398438 31.75 -24.984375 C 33.082031 -22.578125 33.75 -19.816406 33.75 -16.703125 Z M 25.359375 -19.015625 C 25.328125 -21.085938 24.578125 -22.75 23.109375 -24 C 21.648438 -25.257812 19.859375 -25.890625 17.734375 -25.890625 C 15.734375 -25.890625 14.046875 -25.28125 12.671875 -24.0625 C 11.304688 -22.851562 10.472656 -21.171875 10.171875 -19.015625 Z M 25.359375 -19.015625 "/></g></g></g><g clip-path="url(#d2aa4abc34)"><g fill="#1156fc" fill-opacity="1"><g transform="translate(195.635184, 61.755247)"><g><path d="M 34.609375 -32.015625 L 14.796875 15.140625 L 6.1875 15.140625 L 13.109375 -0.8125 L 0.28125 -32.015625 L 9.359375 -32.015625 L 17.625 -9.65625 L 26 -32.015625 Z M 34.609375 -32.015625 "/></g></g></g></g></g></g></g><g clip-path="url(#4d6eb2aaab)"><path fill="#1156fc" d="M 55.25 77.0625 L 11.882812 77.0625 C 11.136719 77.0625 10.402344 76.988281 9.671875 76.84375 C 8.941406 76.699219 8.234375 76.484375 7.546875 76.199219 C 6.859375 75.914062 6.207031 75.5625 5.589844 75.148438 C 4.96875 74.734375 4.398438 74.265625 3.871094 73.742188 C 3.34375 73.214844 2.875 72.640625 2.460938 72.023438 C 2.046875 71.40625 1.699219 70.753906 1.414062 70.066406 C 1.128906 69.378906 0.914062 68.667969 0.769531 67.941406 C 0.621094 67.210938 0.546875 66.472656 0.546875 65.730469 L 0.546875 35.328125 C 0.542969 33.882812 0.8125 32.492188 1.355469 31.152344 C 1.898438 29.8125 2.671875 28.621094 3.679688 27.585938 L 26.878906 3.59375 C 27.3125 3.144531 27.785156 2.742188 28.300781 2.386719 C 28.8125 2.03125 29.355469 1.734375 29.933594 1.488281 C 30.507812 1.242188 31.097656 1.058594 31.710938 0.933594 C 32.324219 0.808594 32.941406 0.746094 33.566406 0.746094 C 34.191406 0.746094 34.808594 0.808594 35.417969 0.933594 C 36.03125 1.058594 36.625 1.242188 37.199219 1.488281 C 37.773438 1.734375 38.316406 2.03125 38.832031 2.386719 C 39.34375 2.742188 39.820312 3.144531 40.25 3.59375 L 65.613281 29.820312 C 65.933594 30.148438 66.179688 30.527344 66.347656 30.953125 C 66.519531 31.378906 66.601562 31.820312 66.59375 32.28125 C 66.585938 32.738281 66.492188 33.179688 66.308594 33.597656 C 66.128906 34.019531 65.871094 34.390625 65.542969 34.710938 C 65.210938 35.027344 64.835938 35.273438 64.40625 35.441406 C 63.980469 35.609375 63.539062 35.6875 63.078125 35.679688 C 62.621094 35.671875 62.179688 35.574219 61.761719 35.390625 C 61.339844 35.207031 60.972656 34.949219 60.652344 34.617188 L 35.289062 8.398438 C 35.066406 8.160156 34.804688 7.976562 34.503906 7.847656 C 34.207031 7.71875 33.890625 7.652344 33.566406 7.652344 C 33.238281 7.652344 32.925781 7.71875 32.625 7.847656 C 32.324219 7.976562 32.0625 8.160156 31.839844 8.398438 L 8.640625 32.382812 C 7.84375 33.207031 7.449219 34.191406 7.457031 35.335938 L 7.457031 65.730469 C 7.457031 66.019531 7.484375 66.308594 7.542969 66.59375 C 7.601562 66.878906 7.683594 67.15625 7.796875 67.425781 C 7.90625 67.695312 8.042969 67.949219 8.207031 68.191406 C 8.367188 68.433594 8.550781 68.660156 8.757812 68.863281 C 8.964844 69.070312 9.1875 69.253906 9.429688 69.414062 C 9.671875 69.578125 9.925781 69.714844 10.195312 69.824219 C 10.464844 69.9375 10.742188 70.023438 11.027344 70.078125 C 11.3125 70.136719 11.601562 70.164062 11.890625 70.164062 L 55.257812 70.164062 C 55.714844 70.164062 56.15625 70.253906 56.578125 70.425781 C 57 70.601562 57.375 70.851562 57.699219 71.175781 C 58.019531 71.5 58.269531 71.871094 58.445312 72.292969 C 58.621094 72.71875 58.707031 73.15625 58.707031 73.613281 C 58.707031 74.070312 58.621094 74.511719 58.445312 74.933594 C 58.269531 75.355469 58.019531 75.730469 57.699219 76.054688 C 57.375 76.378906 57 76.625 56.578125 76.800781 C 56.15625 76.976562 55.714844 77.0625 55.257812 77.0625 Z M 55.25 77.0625 " fill-opacity="1" fill-rule="nonzero"/></g><g clip-path="url(#67c5ca5da6)"><path fill="#1156fc" d="M 29.140625 59.875 C 34.441406 59.875 38.921875 56.28125 40.292969 51.398438 L 52.074219 51.398438 L 52.074219 56.070312 C 52.074219 57.796875 53.476562 59.199219 55.199219 59.199219 C 56.910156 59.199219 58.3125 57.796875 58.3125 56.070312 L 58.3125 51.398438 L 61.246094 51.398438 L 61.246094 56.070312 C 61.246094 57.796875 62.648438 59.199219 64.371094 59.199219 C 66.097656 59.199219 67.5 57.796875 67.5 56.070312 L 67.5 48.269531 C 67.5 46.546875 66.097656 45.144531 64.371094 45.144531 L 40.292969 45.144531 C 38.921875 40.261719 34.441406 36.664062 29.140625 36.664062 C 22.742188 36.664062 17.535156 41.871094 17.535156 48.269531 C 17.535156 54.667969 22.742188 59.875 29.140625 59.875 Z M 29.140625 42.917969 C 32.089844 42.917969 34.488281 45.320312 34.488281 48.269531 C 34.488281 51.21875 32.089844 53.621094 29.140625 53.621094 C 26.191406 53.621094 23.789062 51.21875 23.789062 48.269531 C 23.789062 45.320312 26.191406 42.917969 29.140625 42.917969 Z M 29.140625 42.917969 " fill-opacity="1" fill-rule="nonzero"/></g></g></g></svg>