<svg xmlns="http://www.w3.org/2000/svg" xmlns:xlink="http://www.w3.org/1999/xlink" width="500" zoomAndPan="magnify" viewBox="0 0 375 187.499995" height="250" preserveAspectRatio="xMidYMid meet" version="1.0"><defs><g/><clipPath id="41d9a2352d"><rect x="0" width="174" y="0" height="18"/></clipPath><clipPath id="c543795513"><path d="M 35.308594 52.527344 L 106.371094 52.527344 L 106.371094 134.808594 L 35.308594 134.808594 Z M 35.308594 52.527344 " clip-rule="nonzero"/></clipPath><clipPath id="58398af3ae"><path d="M 53 91.089844 L 108 91.089844 L 108 115.773438 L 53 115.773438 Z M 53 91.089844 " clip-rule="nonzero"/></clipPath></defs><g fill="#131618" fill-opacity="1"><g transform="translate(119.231114, 115.015305)"><g><path d="M 11.578125 -41 L 11.578125 0 L 3.828125 0 L 3.828125 -41 Z M 11.578125 -41 "/></g></g></g><g fill="#131618" fill-opacity="1"><g transform="translate(134.632094, 115.015305)"><g><path d="M 32.359375 -16.015625 C 32.359375 -14.898438 32.285156 -13.898438 32.140625 -13.015625 L 9.703125 -13.015625 C 9.878906 -10.804688 10.648438 -9.070312 12.015625 -7.8125 C 13.390625 -6.550781 15.070312 -5.921875 17.0625 -5.921875 C 19.945312 -5.921875 22 -7.160156 23.21875 -9.640625 L 31.578125 -9.640625 C 30.691406 -6.679688 28.992188 -4.25 26.484375 -2.34375 C 23.972656 -0.445312 20.890625 0.5 17.234375 0.5 C 14.273438 0.5 11.625 -0.15625 9.28125 -1.46875 C 6.9375 -2.78125 5.109375 -4.632812 3.796875 -7.03125 C 2.484375 -9.4375 1.828125 -12.207031 1.828125 -15.34375 C 1.828125 -18.519531 2.472656 -21.304688 3.765625 -23.703125 C 5.054688 -26.109375 6.863281 -27.957031 9.1875 -29.25 C 11.519531 -30.539062 14.203125 -31.1875 17.234375 -31.1875 C 20.148438 -31.1875 22.757812 -30.554688 25.0625 -29.296875 C 27.375 -28.046875 29.164062 -26.265625 30.4375 -23.953125 C 31.71875 -21.648438 32.359375 -19.003906 32.359375 -16.015625 Z M 24.328125 -18.234375 C 24.285156 -20.222656 23.5625 -21.816406 22.15625 -23.015625 C 20.757812 -24.222656 19.046875 -24.828125 17.015625 -24.828125 C 15.085938 -24.828125 13.46875 -24.242188 12.15625 -23.078125 C 10.84375 -21.910156 10.039062 -20.296875 9.75 -18.234375 Z M 24.328125 -18.234375 "/></g></g></g><g fill="#131618" fill-opacity="1"><g transform="translate(168.813399, 115.015305)"><g><path d="M 32.359375 -16.015625 C 32.359375 -14.898438 32.285156 -13.898438 32.140625 -13.015625 L 9.703125 -13.015625 C 9.878906 -10.804688 10.648438 -9.070312 12.015625 -7.8125 C 13.390625 -6.550781 15.070312 -5.921875 17.0625 -5.921875 C 19.945312 -5.921875 22 -7.160156 23.21875 -9.640625 L 31.578125 -9.640625 C 30.691406 -6.679688 28.992188 -4.25 26.484375 -2.34375 C 23.972656 -0.445312 20.890625 0.5 17.234375 0.5 C 14.273438 0.5 11.625 -0.15625 9.28125 -1.46875 C 6.9375 -2.78125 5.109375 -4.632812 3.796875 -7.03125 C 2.484375 -9.4375 1.828125 -12.207031 1.828125 -15.34375 C 1.828125 -18.519531 2.472656 -21.304688 3.765625 -23.703125 C 5.054688 -26.109375 6.863281 -27.957031 9.1875 -29.25 C 11.519531 -30.539062 14.203125 -31.1875 17.234375 -31.1875 C 20.148438 -31.1875 22.757812 -30.554688 25.0625 -29.296875 C 27.375 -28.046875 29.164062 -26.265625 30.4375 -23.953125 C 31.71875 -21.648438 32.359375 -19.003906 32.359375 -16.015625 Z M 24.328125 -18.234375 C 24.285156 -20.222656 23.5625 -21.816406 22.15625 -23.015625 C 20.757812 -24.222656 19.046875 -24.828125 17.015625 -24.828125 C 15.085938 -24.828125 13.46875 -24.242188 12.15625 -23.078125 C 10.84375 -21.910156 10.039062 -20.296875 9.75 -18.234375 Z M 24.328125 -18.234375 "/></g></g></g><g fill="#131618" fill-opacity="1"><g transform="translate(202.994703, 115.015305)"><g><path d="M 20.828125 -31.140625 C 24.484375 -31.140625 27.4375 -29.984375 29.6875 -27.671875 C 31.945312 -25.367188 33.078125 -22.144531 33.078125 -18 L 33.078125 0 L 25.328125 0 L 25.328125 -16.953125 C 25.328125 -19.390625 24.710938 -21.265625 23.484375 -22.578125 C 22.265625 -23.890625 20.601562 -24.546875 18.5 -24.546875 C 16.363281 -24.546875 14.675781 -23.890625 13.4375 -22.578125 C 12.195312 -21.265625 11.578125 -19.390625 11.578125 -16.953125 L 11.578125 0 L 3.828125 0 L 3.828125 -30.6875 L 11.578125 -30.6875 L 11.578125 -26.875 C 12.609375 -28.195312 13.925781 -29.238281 15.53125 -30 C 17.144531 -30.757812 18.910156 -31.140625 20.828125 -31.140625 Z M 20.828125 -31.140625 "/></g></g></g><g fill="#1156fc" fill-opacity="1"><g transform="translate(239.624899, 115.015305)"><g><path d="M 22 0 L 11.578125 -13.078125 L 11.578125 0 L 3.828125 0 L 3.828125 -41 L 11.578125 -41 L 11.578125 -17.671875 L 21.890625 -30.6875 L 31.96875 -30.6875 L 18.453125 -15.296875 L 32.078125 0 Z M 22 0 "/></g></g></g><g fill="#1156fc" fill-opacity="1"><g transform="translate(271.978033, 115.015305)"><g><path d="M 32.359375 -16.015625 C 32.359375 -14.898438 32.285156 -13.898438 32.140625 -13.015625 L 9.703125 -13.015625 C 9.878906 -10.804688 10.648438 -9.070312 12.015625 -7.8125 C 13.390625 -6.550781 15.070312 -5.921875 17.0625 -5.921875 C 19.945312 -5.921875 22 -7.160156 23.21875 -9.640625 L 31.578125 -9.640625 C 30.691406 -6.679688 28.992188 -4.25 26.484375 -2.34375 C 23.972656 -0.445312 20.890625 0.5 17.234375 0.5 C 14.273438 0.5 11.625 -0.15625 9.28125 -1.46875 C 6.9375 -2.78125 5.109375 -4.632812 3.796875 -7.03125 C 2.484375 -9.4375 1.828125 -12.207031 1.828125 -15.34375 C 1.828125 -18.519531 2.472656 -21.304688 3.765625 -23.703125 C 5.054688 -26.109375 6.863281 -27.957031 9.1875 -29.25 C 11.519531 -30.539062 14.203125 -31.1875 17.234375 -31.1875 C 20.148438 -31.1875 22.757812 -30.554688 25.0625 -29.296875 C 27.375 -28.046875 29.164062 -26.265625 30.4375 -23.953125 C 31.71875 -21.648438 32.359375 -19.003906 32.359375 -16.015625 Z M 24.328125 -18.234375 C 24.285156 -20.222656 23.5625 -21.816406 22.15625 -23.015625 C 20.757812 -24.222656 19.046875 -24.828125 17.015625 -24.828125 C 15.085938 -24.828125 13.46875 -24.242188 12.15625 -23.078125 C 10.84375 -21.910156 10.039062 -20.296875 9.75 -18.234375 Z M 24.328125 -18.234375 "/></g></g></g><g fill="#1156fc" fill-opacity="1"><g transform="translate(306.159337, 115.015305)"><g><path d="M 33.1875 -30.6875 L 14.1875 14.515625 L 5.921875 14.515625 L 12.578125 -0.78125 L 0.28125 -30.6875 L 8.96875 -30.6875 L 16.90625 -9.25 L 24.9375 -30.6875 Z M 33.1875 -30.6875 "/></g></g></g><g transform="matrix(1, 0, 0, 1, 122, 118)"><g clip-path="url(#41d9a2352d)"><g fill="#131618" fill-opacity="1"><g transform="translate(1.215437, 13.260887)"><g><path d="M 1.8125 -8.34375 L 3.328125 -0.671875 L 7.5625 -8.34375 L 8.15625 -8.34375 L 3.5 0 L 2.90625 0 L 1.21875 -8.34375 Z M 1.8125 -8.34375 "/></g></g></g><g fill="#131618" fill-opacity="1"><g transform="translate(8.796396, 13.260887)"><g><path d="M 4.34375 -6.53125 C 4.894531 -6.53125 5.359375 -6.425781 5.734375 -6.21875 C 6.117188 -6.007812 6.410156 -5.726562 6.609375 -5.375 C 6.804688 -5.019531 6.90625 -4.625 6.90625 -4.1875 C 6.90625 -4 6.890625 -3.828125 6.859375 -3.671875 C 6.804688 -3.378906 6.753906 -3.164062 6.703125 -3.03125 L 1.140625 -3.03125 C 1.109375 -2.769531 1.09375 -2.585938 1.09375 -2.484375 C 1.09375 -1.796875 1.296875 -1.269531 1.703125 -0.90625 C 2.117188 -0.550781 2.640625 -0.375 3.265625 -0.375 C 3.890625 -0.375 4.445312 -0.53125 4.9375 -0.84375 C 5.425781 -1.15625 5.769531 -1.578125 5.96875 -2.109375 L 6.53125 -2.109375 C 6.28125 -1.453125 5.859375 -0.921875 5.265625 -0.515625 C 4.671875 -0.109375 3.976562 0.09375 3.1875 0.09375 C 2.394531 0.09375 1.757812 -0.132812 1.28125 -0.59375 C 0.800781 -1.050781 0.5625 -1.675781 0.5625 -2.46875 C 0.5625 -2.71875 0.582031 -2.972656 0.625 -3.234375 C 0.75 -3.898438 0.988281 -4.484375 1.34375 -4.984375 C 1.695312 -5.484375 2.132812 -5.863281 2.65625 -6.125 C 3.175781 -6.394531 3.738281 -6.53125 4.34375 -6.53125 Z M 6.28125 -3.4375 C 6.332031 -3.664062 6.359375 -3.898438 6.359375 -4.140625 C 6.359375 -4.765625 6.160156 -5.242188 5.765625 -5.578125 C 5.367188 -5.910156 4.863281 -6.078125 4.25 -6.078125 C 3.800781 -6.078125 3.363281 -5.976562 2.9375 -5.78125 C 2.519531 -5.582031 2.15625 -5.285156 1.84375 -4.890625 C 1.539062 -4.492188 1.332031 -4.007812 1.21875 -3.4375 Z M 6.28125 -3.4375 "/></g></g></g><g fill="#131618" fill-opacity="1"><g transform="translate(16.211265, 13.260887)"><g><path d="M 4.46875 -6.578125 C 5.125 -6.578125 5.648438 -6.398438 6.046875 -6.046875 C 6.441406 -5.691406 6.640625 -5.171875 6.640625 -4.484375 C 6.640625 -4.273438 6.613281 -4.039062 6.5625 -3.78125 L 5.90625 0 L 5.375 0 L 6.046875 -3.734375 C 6.085938 -3.992188 6.109375 -4.207031 6.109375 -4.375 C 6.109375 -4.9375 5.945312 -5.363281 5.625 -5.65625 C 5.3125 -5.957031 4.867188 -6.109375 4.296875 -6.109375 C 3.628906 -6.109375 3.054688 -5.898438 2.578125 -5.484375 C 2.097656 -5.078125 1.765625 -4.476562 1.578125 -3.6875 L 0.921875 0 L 0.390625 0 L 1.546875 -6.453125 L 2.078125 -6.453125 L 1.84375 -5.09375 C 2.113281 -5.570312 2.476562 -5.9375 2.9375 -6.1875 C 3.40625 -6.445312 3.914062 -6.578125 4.46875 -6.578125 Z M 4.46875 -6.578125 "/></g></g></g><g fill="#131618" fill-opacity="1"><g transform="translate(23.602403, 13.260887)"><g><path d="M 0.625 -3.234375 C 0.75 -3.898438 0.984375 -4.476562 1.328125 -4.96875 C 1.679688 -5.46875 2.117188 -5.851562 2.640625 -6.125 C 3.171875 -6.394531 3.734375 -6.53125 4.328125 -6.53125 C 4.984375 -6.53125 5.523438 -6.363281 5.953125 -6.03125 C 6.378906 -5.707031 6.644531 -5.285156 6.75 -4.765625 L 7.453125 -8.78125 L 7.984375 -8.78125 L 6.421875 0 L 5.90625 0 L 6.203125 -1.703125 C 5.929688 -1.179688 5.523438 -0.75 4.984375 -0.40625 C 4.453125 -0.0703125 3.84375 0.09375 3.15625 0.09375 C 2.363281 0.09375 1.734375 -0.132812 1.265625 -0.59375 C 0.796875 -1.0625 0.5625 -1.691406 0.5625 -2.484375 C 0.5625 -2.722656 0.582031 -2.972656 0.625 -3.234375 Z M 6.46875 -3.234375 C 6.507812 -3.472656 6.53125 -3.679688 6.53125 -3.859375 C 6.53125 -4.535156 6.328125 -5.070312 5.921875 -5.46875 C 5.515625 -5.863281 4.984375 -6.0625 4.328125 -6.0625 C 3.796875 -6.0625 3.3125 -5.945312 2.875 -5.71875 C 2.4375 -5.5 2.066406 -5.175781 1.765625 -4.75 C 1.472656 -4.320312 1.273438 -3.816406 1.171875 -3.234375 C 1.128906 -2.972656 1.109375 -2.75 1.109375 -2.5625 C 1.109375 -1.875 1.304688 -1.335938 1.703125 -0.953125 C 2.097656 -0.566406 2.632812 -0.375 3.3125 -0.375 C 3.8125 -0.375 4.285156 -0.488281 4.734375 -0.71875 C 5.179688 -0.957031 5.554688 -1.289062 5.859375 -1.71875 C 6.160156 -2.15625 6.363281 -2.660156 6.46875 -3.234375 Z M 6.46875 -3.234375 "/></g></g></g><g fill="#131618" fill-opacity="1"><g transform="translate(31.586735, 13.260887)"><g><path d="M 4.34375 -6.53125 C 4.894531 -6.53125 5.359375 -6.425781 5.734375 -6.21875 C 6.117188 -6.007812 6.410156 -5.726562 6.609375 -5.375 C 6.804688 -5.019531 6.90625 -4.625 6.90625 -4.1875 C 6.90625 -4 6.890625 -3.828125 6.859375 -3.671875 C 6.804688 -3.378906 6.753906 -3.164062 6.703125 -3.03125 L 1.140625 -3.03125 C 1.109375 -2.769531 1.09375 -2.585938 1.09375 -2.484375 C 1.09375 -1.796875 1.296875 -1.269531 1.703125 -0.90625 C 2.117188 -0.550781 2.640625 -0.375 3.265625 -0.375 C 3.890625 -0.375 4.445312 -0.53125 4.9375 -0.84375 C 5.425781 -1.15625 5.769531 -1.578125 5.96875 -2.109375 L 6.53125 -2.109375 C 6.28125 -1.453125 5.859375 -0.921875 5.265625 -0.515625 C 4.671875 -0.109375 3.976562 0.09375 3.1875 0.09375 C 2.394531 0.09375 1.757812 -0.132812 1.28125 -0.59375 C 0.800781 -1.050781 0.5625 -1.675781 0.5625 -2.46875 C 0.5625 -2.71875 0.582031 -2.972656 0.625 -3.234375 C 0.75 -3.898438 0.988281 -4.484375 1.34375 -4.984375 C 1.695312 -5.484375 2.132812 -5.863281 2.65625 -6.125 C 3.175781 -6.394531 3.738281 -6.53125 4.34375 -6.53125 Z M 6.28125 -3.4375 C 6.332031 -3.664062 6.359375 -3.898438 6.359375 -4.140625 C 6.359375 -4.765625 6.160156 -5.242188 5.765625 -5.578125 C 5.367188 -5.910156 4.863281 -6.078125 4.25 -6.078125 C 3.800781 -6.078125 3.363281 -5.976562 2.9375 -5.78125 C 2.519531 -5.582031 2.15625 -5.285156 1.84375 -4.890625 C 1.539062 -4.492188 1.332031 -4.007812 1.21875 -3.4375 Z M 6.28125 -3.4375 "/></g></g></g><g fill="#131618" fill-opacity="1"><g transform="translate(39.001604, 13.260887)"><g><path d="M 0.515625 -0.453125 L 4.125 -0.453125 L 4.046875 0 L -0.171875 0 L -0.09375 -0.453125 L 4.421875 -6 L 0.96875 -6 L 1.046875 -6.453125 L 5.109375 -6.453125 L 5.015625 -6 Z M 0.515625 -0.453125 "/></g></g></g><g fill="#131618" fill-opacity="1"><g transform="translate(44.031856, 13.260887)"><g/></g></g><g fill="#131618" fill-opacity="1"><g transform="translate(47.507945, 13.260887)"><g><path d="M 2.703125 -0.625 L 6.078125 -6.453125 L 6.65625 -6.453125 L 2.84375 0 L 2.296875 0 L 0.765625 -6.453125 L 1.34375 -6.453125 Z M 2.703125 -0.625 "/></g></g></g><g fill="#131618" fill-opacity="1"><g transform="translate(53.807612, 13.260887)"><g><path d="M 3.234375 0.09375 C 2.429688 0.09375 1.785156 -0.140625 1.296875 -0.609375 C 0.804688 -1.078125 0.5625 -1.707031 0.5625 -2.5 C 0.5625 -3.226562 0.726562 -3.898438 1.0625 -4.515625 C 1.394531 -5.140625 1.851562 -5.628906 2.4375 -5.984375 C 3.019531 -6.347656 3.671875 -6.53125 4.390625 -6.53125 C 4.910156 -6.53125 5.375 -6.425781 5.78125 -6.21875 C 6.1875 -6.007812 6.5 -5.707031 6.71875 -5.3125 C 6.945312 -4.914062 7.0625 -4.457031 7.0625 -3.9375 C 7.0625 -3.207031 6.894531 -2.53125 6.5625 -1.90625 C 6.226562 -1.289062 5.769531 -0.800781 5.1875 -0.4375 C 4.613281 -0.0820312 3.960938 0.09375 3.234375 0.09375 Z M 3.3125 -0.375 C 3.925781 -0.375 4.476562 -0.535156 4.96875 -0.859375 C 5.457031 -1.179688 5.835938 -1.609375 6.109375 -2.140625 C 6.378906 -2.679688 6.515625 -3.269531 6.515625 -3.90625 C 6.515625 -4.613281 6.304688 -5.148438 5.890625 -5.515625 C 5.472656 -5.890625 4.945312 -6.078125 4.3125 -6.078125 C 3.6875 -6.078125 3.128906 -5.914062 2.640625 -5.59375 C 2.160156 -5.269531 1.785156 -4.835938 1.515625 -4.296875 C 1.242188 -3.753906 1.109375 -3.171875 1.109375 -2.546875 C 1.109375 -1.835938 1.316406 -1.296875 1.734375 -0.921875 C 2.148438 -0.554688 2.675781 -0.375 3.3125 -0.375 Z M 3.3125 -0.375 "/></g></g></g><g fill="#131618" fill-opacity="1"><g transform="translate(61.459755, 13.260887)"><g><path d="M 1.5 -1.71875 C 1.46875 -1.5625 1.453125 -1.40625 1.453125 -1.25 C 1.453125 -0.957031 1.53125 -0.753906 1.6875 -0.640625 C 1.84375 -0.523438 2.101562 -0.46875 2.46875 -0.46875 L 3.1875 -0.46875 L 3.09375 0 L 2.296875 0 C 1.816406 0 1.460938 -0.0859375 1.234375 -0.265625 C 1.015625 -0.453125 0.90625 -0.753906 0.90625 -1.171875 C 0.90625 -1.359375 0.921875 -1.539062 0.953125 -1.71875 L 1.703125 -5.984375 L 0.734375 -5.984375 L 0.8125 -6.453125 L 1.796875 -6.453125 L 2.078125 -8.09375 L 2.625 -8.09375 L 2.34375 -6.453125 L 4.234375 -6.453125 L 4.15625 -5.984375 L 2.25 -5.984375 Z M 1.5 -1.71875 "/></g></g></g><g fill="#131618" fill-opacity="1"><g transform="translate(65.57649, 13.260887)"><g><path d="M 1.828125 -5.0625 C 2.078125 -5.550781 2.425781 -5.925781 2.875 -6.1875 C 3.320312 -6.445312 3.859375 -6.578125 4.484375 -6.578125 L 4.375 -6.015625 L 4.203125 -6.015625 C 3.566406 -6.015625 3.007812 -5.832031 2.53125 -5.46875 C 2.050781 -5.113281 1.738281 -4.53125 1.59375 -3.71875 L 0.921875 0 L 0.390625 0 L 1.546875 -6.453125 L 2.078125 -6.453125 Z M 1.828125 -5.0625 "/></g></g></g><g fill="#131618" fill-opacity="1"><g transform="translate(69.728811, 13.260887)"><g><path d="M 4.34375 -6.53125 C 4.894531 -6.53125 5.359375 -6.425781 5.734375 -6.21875 C 6.117188 -6.007812 6.410156 -5.726562 6.609375 -5.375 C 6.804688 -5.019531 6.90625 -4.625 6.90625 -4.1875 C 6.90625 -4 6.890625 -3.828125 6.859375 -3.671875 C 6.804688 -3.378906 6.753906 -3.164062 6.703125 -3.03125 L 1.140625 -3.03125 C 1.109375 -2.769531 1.09375 -2.585938 1.09375 -2.484375 C 1.09375 -1.796875 1.296875 -1.269531 1.703125 -0.90625 C 2.117188 -0.550781 2.640625 -0.375 3.265625 -0.375 C 3.890625 -0.375 4.445312 -0.53125 4.9375 -0.84375 C 5.425781 -1.15625 5.769531 -1.578125 5.96875 -2.109375 L 6.53125 -2.109375 C 6.28125 -1.453125 5.859375 -0.921875 5.265625 -0.515625 C 4.671875 -0.109375 3.976562 0.09375 3.1875 0.09375 C 2.394531 0.09375 1.757812 -0.132812 1.28125 -0.59375 C 0.800781 -1.050781 0.5625 -1.675781 0.5625 -2.46875 C 0.5625 -2.71875 0.582031 -2.972656 0.625 -3.234375 C 0.75 -3.898438 0.988281 -4.484375 1.34375 -4.984375 C 1.695312 -5.484375 2.132812 -5.863281 2.65625 -6.125 C 3.175781 -6.394531 3.738281 -6.53125 4.34375 -6.53125 Z M 6.28125 -3.4375 C 6.332031 -3.664062 6.359375 -3.898438 6.359375 -4.140625 C 6.359375 -4.765625 6.160156 -5.242188 5.765625 -5.578125 C 5.367188 -5.910156 4.863281 -6.078125 4.25 -6.078125 C 3.800781 -6.078125 3.363281 -5.976562 2.9375 -5.78125 C 2.519531 -5.582031 2.15625 -5.285156 1.84375 -4.890625 C 1.539062 -4.492188 1.332031 -4.007812 1.21875 -3.4375 Z M 6.28125 -3.4375 "/></g></g></g><g fill="#131618" fill-opacity="1"><g transform="translate(77.143681, 13.260887)"><g/></g></g><g fill="#131618" fill-opacity="1"><g transform="translate(80.61977, 13.260887)"><g><path d="M 1.765625 -4.75 C 2.054688 -5.269531 2.46875 -5.695312 3 -6.03125 C 3.53125 -6.363281 4.132812 -6.53125 4.8125 -6.53125 C 5.613281 -6.53125 6.242188 -6.300781 6.703125 -5.84375 C 7.171875 -5.394531 7.40625 -4.773438 7.40625 -3.984375 C 7.40625 -3.742188 7.382812 -3.492188 7.34375 -3.234375 C 7.21875 -2.566406 6.976562 -1.976562 6.625 -1.46875 C 6.28125 -0.96875 5.847656 -0.582031 5.328125 -0.3125 C 4.804688 -0.0390625 4.242188 0.09375 3.640625 0.09375 C 2.972656 0.09375 2.429688 -0.0703125 2.015625 -0.40625 C 1.597656 -0.738281 1.332031 -1.164062 1.21875 -1.6875 L 0.921875 0 L 0.390625 0 L 1.953125 -8.78125 L 2.484375 -8.78125 Z M 6.796875 -3.234375 C 6.835938 -3.429688 6.859375 -3.65625 6.859375 -3.90625 C 6.859375 -4.582031 6.660156 -5.109375 6.265625 -5.484375 C 5.867188 -5.867188 5.332031 -6.0625 4.65625 -6.0625 C 4.15625 -6.0625 3.679688 -5.945312 3.234375 -5.71875 C 2.796875 -5.488281 2.421875 -5.15625 2.109375 -4.71875 C 1.804688 -4.289062 1.601562 -3.796875 1.5 -3.234375 C 1.457031 -2.972656 1.4375 -2.757812 1.4375 -2.59375 C 1.4375 -1.914062 1.640625 -1.375 2.046875 -0.96875 C 2.453125 -0.570312 2.984375 -0.375 3.640625 -0.375 C 4.160156 -0.375 4.640625 -0.488281 5.078125 -0.71875 C 5.523438 -0.945312 5.894531 -1.273438 6.1875 -1.703125 C 6.488281 -2.128906 6.691406 -2.640625 6.796875 -3.234375 Z M 6.796875 -3.234375 "/></g></g></g><g fill="#131618" fill-opacity="1"><g transform="translate(88.604102, 13.260887)"><g><path d="M 2.046875 -7.890625 C 1.941406 -7.890625 1.851562 -7.921875 1.78125 -7.984375 C 1.707031 -8.054688 1.671875 -8.144531 1.671875 -8.25 C 1.671875 -8.40625 1.722656 -8.535156 1.828125 -8.640625 C 1.941406 -8.753906 2.070312 -8.8125 2.21875 -8.8125 C 2.332031 -8.8125 2.425781 -8.773438 2.5 -8.703125 C 2.570312 -8.628906 2.609375 -8.539062 2.609375 -8.4375 C 2.609375 -8.269531 2.550781 -8.132812 2.4375 -8.03125 C 2.320312 -7.9375 2.191406 -7.890625 2.046875 -7.890625 Z M 2.078125 -6.453125 L 0.921875 0 L 0.390625 0 L 1.546875 -6.453125 Z M 2.078125 -6.453125 "/></g></g></g><g fill="#131618" fill-opacity="1"><g transform="translate(91.095502, 13.260887)"><g><path d="M 4.34375 -6.53125 C 4.894531 -6.53125 5.359375 -6.425781 5.734375 -6.21875 C 6.117188 -6.007812 6.410156 -5.726562 6.609375 -5.375 C 6.804688 -5.019531 6.90625 -4.625 6.90625 -4.1875 C 6.90625 -4 6.890625 -3.828125 6.859375 -3.671875 C 6.804688 -3.378906 6.753906 -3.164062 6.703125 -3.03125 L 1.140625 -3.03125 C 1.109375 -2.769531 1.09375 -2.585938 1.09375 -2.484375 C 1.09375 -1.796875 1.296875 -1.269531 1.703125 -0.90625 C 2.117188 -0.550781 2.640625 -0.375 3.265625 -0.375 C 3.890625 -0.375 4.445312 -0.53125 4.9375 -0.84375 C 5.425781 -1.15625 5.769531 -1.578125 5.96875 -2.109375 L 6.53125 -2.109375 C 6.28125 -1.453125 5.859375 -0.921875 5.265625 -0.515625 C 4.671875 -0.109375 3.976562 0.09375 3.1875 0.09375 C 2.394531 0.09375 1.757812 -0.132812 1.28125 -0.59375 C 0.800781 -1.050781 0.5625 -1.675781 0.5625 -2.46875 C 0.5625 -2.71875 0.582031 -2.972656 0.625 -3.234375 C 0.75 -3.898438 0.988281 -4.484375 1.34375 -4.984375 C 1.695312 -5.484375 2.132812 -5.863281 2.65625 -6.125 C 3.175781 -6.394531 3.738281 -6.53125 4.34375 -6.53125 Z M 6.28125 -3.4375 C 6.332031 -3.664062 6.359375 -3.898438 6.359375 -4.140625 C 6.359375 -4.765625 6.160156 -5.242188 5.765625 -5.578125 C 5.367188 -5.910156 4.863281 -6.078125 4.25 -6.078125 C 3.800781 -6.078125 3.363281 -5.976562 2.9375 -5.78125 C 2.519531 -5.582031 2.15625 -5.285156 1.84375 -4.890625 C 1.539062 -4.492188 1.332031 -4.007812 1.21875 -3.4375 Z M 6.28125 -3.4375 "/></g></g></g><g fill="#131618" fill-opacity="1"><g transform="translate(98.510371, 13.260887)"><g><path d="M 4.46875 -6.578125 C 5.125 -6.578125 5.648438 -6.398438 6.046875 -6.046875 C 6.441406 -5.691406 6.640625 -5.171875 6.640625 -4.484375 C 6.640625 -4.273438 6.613281 -4.039062 6.5625 -3.78125 L 5.90625 0 L 5.375 0 L 6.046875 -3.734375 C 6.085938 -3.992188 6.109375 -4.207031 6.109375 -4.375 C 6.109375 -4.9375 5.945312 -5.363281 5.625 -5.65625 C 5.3125 -5.957031 4.867188 -6.109375 4.296875 -6.109375 C 3.628906 -6.109375 3.054688 -5.898438 2.578125 -5.484375 C 2.097656 -5.078125 1.765625 -4.476562 1.578125 -3.6875 L 0.921875 0 L 0.390625 0 L 1.546875 -6.453125 L 2.078125 -6.453125 L 1.84375 -5.09375 C 2.113281 -5.570312 2.476562 -5.9375 2.9375 -6.1875 C 3.40625 -6.445312 3.914062 -6.578125 4.46875 -6.578125 Z M 4.46875 -6.578125 "/></g></g></g><g fill="#131618" fill-opacity="1"><g transform="translate(105.901509, 13.260887)"><g/></g></g><g fill="#131618" fill-opacity="1"><g transform="translate(109.377598, 13.260887)"><g><path d="M 0.625 -3.234375 C 0.75 -3.898438 0.984375 -4.476562 1.328125 -4.96875 C 1.679688 -5.46875 2.117188 -5.851562 2.640625 -6.125 C 3.171875 -6.394531 3.734375 -6.53125 4.328125 -6.53125 C 5.003906 -6.53125 5.550781 -6.363281 5.96875 -6.03125 C 6.382812 -5.695312 6.644531 -5.273438 6.75 -4.765625 L 7.046875 -6.453125 L 7.578125 -6.453125 L 6.421875 0 L 5.90625 0 L 6.203125 -1.703125 C 5.921875 -1.179688 5.507812 -0.75 4.96875 -0.40625 C 4.4375 -0.0703125 3.828125 0.09375 3.140625 0.09375 C 2.359375 0.09375 1.734375 -0.132812 1.265625 -0.59375 C 0.796875 -1.0625 0.5625 -1.691406 0.5625 -2.484375 C 0.5625 -2.722656 0.582031 -2.972656 0.625 -3.234375 Z M 6.46875 -3.234375 C 6.507812 -3.472656 6.53125 -3.679688 6.53125 -3.859375 C 6.53125 -4.535156 6.328125 -5.070312 5.921875 -5.46875 C 5.515625 -5.863281 4.984375 -6.0625 4.328125 -6.0625 C 3.796875 -6.0625 3.3125 -5.945312 2.875 -5.71875 C 2.4375 -5.5 2.066406 -5.175781 1.765625 -4.75 C 1.472656 -4.320312 1.273438 -3.816406 1.171875 -3.234375 C 1.128906 -2.972656 1.109375 -2.75 1.109375 -2.5625 C 1.109375 -1.875 1.304688 -1.335938 1.703125 -0.953125 C 2.097656 -0.566406 2.632812 -0.375 3.3125 -0.375 C 3.8125 -0.375 4.285156 -0.488281 4.734375 -0.71875 C 5.179688 -0.957031 5.554688 -1.289062 5.859375 -1.71875 C 6.160156 -2.15625 6.363281 -2.660156 6.46875 -3.234375 Z M 6.46875 -3.234375 "/></g></g></g><g fill="#131618" fill-opacity="1"><g transform="translate(117.36193, 13.260887)"><g><path d="M 6.984375 -6.453125 L 5.84375 0 L 5.3125 0 L 5.5625 -1.390625 C 5.289062 -0.910156 4.921875 -0.539062 4.453125 -0.28125 C 3.984375 -0.0195312 3.476562 0.109375 2.9375 0.109375 C 2.28125 0.109375 1.75 -0.0664062 1.34375 -0.421875 C 0.945312 -0.773438 0.75 -1.300781 0.75 -2 C 0.75 -2.257812 0.769531 -2.492188 0.8125 -2.703125 L 1.484375 -6.453125 L 2 -6.453125 L 1.34375 -2.734375 C 1.300781 -2.472656 1.28125 -2.265625 1.28125 -2.109375 C 1.28125 -1.535156 1.4375 -1.097656 1.75 -0.796875 C 2.070312 -0.503906 2.519531 -0.359375 3.09375 -0.359375 C 3.78125 -0.359375 4.367188 -0.582031 4.859375 -1.03125 C 5.359375 -1.476562 5.679688 -2.132812 5.828125 -3 L 5.828125 -2.953125 L 6.453125 -6.453125 Z M 6.984375 -6.453125 "/></g></g></g><g fill="#131618" fill-opacity="1"><g transform="translate(124.753068, 13.260887)"><g><path d="M 1.5 -1.71875 C 1.46875 -1.5625 1.453125 -1.40625 1.453125 -1.25 C 1.453125 -0.957031 1.53125 -0.753906 1.6875 -0.640625 C 1.84375 -0.523438 2.101562 -0.46875 2.46875 -0.46875 L 3.1875 -0.46875 L 3.09375 0 L 2.296875 0 C 1.816406 0 1.460938 -0.0859375 1.234375 -0.265625 C 1.015625 -0.453125 0.90625 -0.753906 0.90625 -1.171875 C 0.90625 -1.359375 0.921875 -1.539062 0.953125 -1.71875 L 1.703125 -5.984375 L 0.734375 -5.984375 L 0.8125 -6.453125 L 1.796875 -6.453125 L 2.078125 -8.09375 L 2.625 -8.09375 L 2.34375 -6.453125 L 4.234375 -6.453125 L 4.15625 -5.984375 L 2.25 -5.984375 Z M 1.5 -1.71875 "/></g></g></g><g fill="#131618" fill-opacity="1"><g transform="translate(128.869803, 13.260887)"><g><path d="M 1.828125 -5.0625 C 2.078125 -5.550781 2.425781 -5.925781 2.875 -6.1875 C 3.320312 -6.445312 3.859375 -6.578125 4.484375 -6.578125 L 4.375 -6.015625 L 4.203125 -6.015625 C 3.566406 -6.015625 3.007812 -5.832031 2.53125 -5.46875 C 2.050781 -5.113281 1.738281 -4.53125 1.59375 -3.71875 L 0.921875 0 L 0.390625 0 L 1.546875 -6.453125 L 2.078125 -6.453125 Z M 1.828125 -5.0625 "/></g></g></g><g fill="#131618" fill-opacity="1"><g transform="translate(133.022125, 13.260887)"><g><path d="M 4.34375 -6.53125 C 4.894531 -6.53125 5.359375 -6.425781 5.734375 -6.21875 C 6.117188 -6.007812 6.410156 -5.726562 6.609375 -5.375 C 6.804688 -5.019531 6.90625 -4.625 6.90625 -4.1875 C 6.90625 -4 6.890625 -3.828125 6.859375 -3.671875 C 6.804688 -3.378906 6.753906 -3.164062 6.703125 -3.03125 L 1.140625 -3.03125 C 1.109375 -2.769531 1.09375 -2.585938 1.09375 -2.484375 C 1.09375 -1.796875 1.296875 -1.269531 1.703125 -0.90625 C 2.117188 -0.550781 2.640625 -0.375 3.265625 -0.375 C 3.890625 -0.375 4.445312 -0.53125 4.9375 -0.84375 C 5.425781 -1.15625 5.769531 -1.578125 5.96875 -2.109375 L 6.53125 -2.109375 C 6.28125 -1.453125 5.859375 -0.921875 5.265625 -0.515625 C 4.671875 -0.109375 3.976562 0.09375 3.1875 0.09375 C 2.394531 0.09375 1.757812 -0.132812 1.28125 -0.59375 C 0.800781 -1.050781 0.5625 -1.675781 0.5625 -2.46875 C 0.5625 -2.71875 0.582031 -2.972656 0.625 -3.234375 C 0.75 -3.898438 0.988281 -4.484375 1.34375 -4.984375 C 1.695312 -5.484375 2.132812 -5.863281 2.65625 -6.125 C 3.175781 -6.394531 3.738281 -6.53125 4.34375 -6.53125 Z M 6.28125 -3.4375 C 6.332031 -3.664062 6.359375 -3.898438 6.359375 -4.140625 C 6.359375 -4.765625 6.160156 -5.242188 5.765625 -5.578125 C 5.367188 -5.910156 4.863281 -6.078125 4.25 -6.078125 C 3.800781 -6.078125 3.363281 -5.976562 2.9375 -5.78125 C 2.519531 -5.582031 2.15625 -5.285156 1.84375 -4.890625 C 1.539062 -4.492188 1.332031 -4.007812 1.21875 -3.4375 Z M 6.28125 -3.4375 "/></g></g></g><g fill="#131618" fill-opacity="1"><g transform="translate(140.436994, 13.260887)"><g><path d="M 9.171875 -6.578125 C 9.804688 -6.578125 10.3125 -6.398438 10.6875 -6.046875 C 11.070312 -5.691406 11.265625 -5.171875 11.265625 -4.484375 C 11.265625 -4.273438 11.242188 -4.039062 11.203125 -3.78125 L 10.515625 0 L 10 0 L 10.65625 -3.734375 C 10.695312 -3.929688 10.71875 -4.15625 10.71875 -4.40625 C 10.71875 -4.957031 10.566406 -5.378906 10.265625 -5.671875 C 9.972656 -5.960938 9.5625 -6.109375 9.03125 -6.109375 C 8.363281 -6.109375 7.785156 -5.878906 7.296875 -5.421875 C 6.804688 -4.960938 6.488281 -4.300781 6.34375 -3.4375 L 5.71875 0 L 5.203125 0 L 5.859375 -3.734375 C 5.898438 -3.929688 5.921875 -4.15625 5.921875 -4.40625 C 5.921875 -4.957031 5.769531 -5.378906 5.46875 -5.671875 C 5.175781 -5.960938 4.765625 -6.109375 4.234375 -6.109375 C 3.566406 -6.109375 2.988281 -5.878906 2.5 -5.421875 C 2.007812 -4.960938 1.691406 -4.300781 1.546875 -3.4375 L 1.546875 -3.453125 L 0.921875 0 L 0.390625 0 L 1.546875 -6.453125 L 2.078125 -6.453125 L 1.828125 -5.078125 C 2.109375 -5.566406 2.472656 -5.9375 2.921875 -6.1875 C 3.367188 -6.445312 3.851562 -6.578125 4.375 -6.578125 C 4.96875 -6.578125 5.445312 -6.425781 5.8125 -6.125 C 6.175781 -5.820312 6.390625 -5.375 6.453125 -4.78125 C 6.710938 -5.375 7.085938 -5.820312 7.578125 -6.125 C 8.066406 -6.425781 8.597656 -6.578125 9.171875 -6.578125 Z M 9.171875 -6.578125 "/></g></g></g><g fill="#131618" fill-opacity="1"><g transform="translate(152.455011, 13.260887)"><g><path d="M 4.34375 -6.53125 C 4.894531 -6.53125 5.359375 -6.425781 5.734375 -6.21875 C 6.117188 -6.007812 6.410156 -5.726562 6.609375 -5.375 C 6.804688 -5.019531 6.90625 -4.625 6.90625 -4.1875 C 6.90625 -4 6.890625 -3.828125 6.859375 -3.671875 C 6.804688 -3.378906 6.753906 -3.164062 6.703125 -3.03125 L 1.140625 -3.03125 C 1.109375 -2.769531 1.09375 -2.585938 1.09375 -2.484375 C 1.09375 -1.796875 1.296875 -1.269531 1.703125 -0.90625 C 2.117188 -0.550781 2.640625 -0.375 3.265625 -0.375 C 3.890625 -0.375 4.445312 -0.53125 4.9375 -0.84375 C 5.425781 -1.15625 5.769531 -1.578125 5.96875 -2.109375 L 6.53125 -2.109375 C 6.28125 -1.453125 5.859375 -0.921875 5.265625 -0.515625 C 4.671875 -0.109375 3.976562 0.09375 3.1875 0.09375 C 2.394531 0.09375 1.757812 -0.132812 1.28125 -0.59375 C 0.800781 -1.050781 0.5625 -1.675781 0.5625 -2.46875 C 0.5625 -2.71875 0.582031 -2.972656 0.625 -3.234375 C 0.75 -3.898438 0.988281 -4.484375 1.34375 -4.984375 C 1.695312 -5.484375 2.132812 -5.863281 2.65625 -6.125 C 3.175781 -6.394531 3.738281 -6.53125 4.34375 -6.53125 Z M 6.28125 -3.4375 C 6.332031 -3.664062 6.359375 -3.898438 6.359375 -4.140625 C 6.359375 -4.765625 6.160156 -5.242188 5.765625 -5.578125 C 5.367188 -5.910156 4.863281 -6.078125 4.25 -6.078125 C 3.800781 -6.078125 3.363281 -5.976562 2.9375 -5.78125 C 2.519531 -5.582031 2.15625 -5.285156 1.84375 -4.890625 C 1.539062 -4.492188 1.332031 -4.007812 1.21875 -3.4375 Z M 6.28125 -3.4375 "/></g></g></g><g fill="#131618" fill-opacity="1"><g transform="translate(159.869881, 13.260887)"><g><path d="M 4.46875 -6.578125 C 5.125 -6.578125 5.648438 -6.398438 6.046875 -6.046875 C 6.441406 -5.691406 6.640625 -5.171875 6.640625 -4.484375 C 6.640625 -4.273438 6.613281 -4.039062 6.5625 -3.78125 L 5.90625 0 L 5.375 0 L 6.046875 -3.734375 C 6.085938 -3.992188 6.109375 -4.207031 6.109375 -4.375 C 6.109375 -4.9375 5.945312 -5.363281 5.625 -5.65625 C 5.3125 -5.957031 4.867188 -6.109375 4.296875 -6.109375 C 3.628906 -6.109375 3.054688 -5.898438 2.578125 -5.484375 C 2.097656 -5.078125 1.765625 -4.476562 1.578125 -3.6875 L 0.921875 0 L 0.390625 0 L 1.546875 -6.453125 L 2.078125 -6.453125 L 1.84375 -5.09375 C 2.113281 -5.570312 2.476562 -5.9375 2.9375 -6.1875 C 3.40625 -6.445312 3.914062 -6.578125 4.46875 -6.578125 Z M 4.46875 -6.578125 "/></g></g></g><g fill="#131618" fill-opacity="1"><g transform="translate(167.261019, 13.260887)"><g><path d="M 1.5 -1.71875 C 1.46875 -1.5625 1.453125 -1.40625 1.453125 -1.25 C 1.453125 -0.957031 1.53125 -0.753906 1.6875 -0.640625 C 1.84375 -0.523438 2.101562 -0.46875 2.46875 -0.46875 L 3.1875 -0.46875 L 3.09375 0 L 2.296875 0 C 1.816406 0 1.460938 -0.0859375 1.234375 -0.265625 C 1.015625 -0.453125 0.90625 -0.753906 0.90625 -1.171875 C 0.90625 -1.359375 0.921875 -1.539062 0.953125 -1.71875 L 1.703125 -5.984375 L 0.734375 -5.984375 L 0.8125 -6.453125 L 1.796875 -6.453125 L 2.078125 -8.09375 L 2.625 -8.09375 L 2.34375 -6.453125 L 4.234375 -6.453125 L 4.15625 -5.984375 L 2.25 -5.984375 Z M 1.5 -1.71875 "/></g></g></g><g fill="#131618" fill-opacity="1"><g transform="translate(171.377754, 13.260887)"><g><path d="M 0.296875 0.03125 C 0.179688 0.03125 0.0859375 0 0.015625 -0.0625 C -0.046875 -0.132812 -0.078125 -0.222656 -0.078125 -0.328125 C -0.078125 -0.484375 -0.0234375 -0.613281 0.078125 -0.71875 C 0.191406 -0.832031 0.320312 -0.890625 0.46875 -0.890625 C 0.582031 -0.890625 0.675781 -0.851562 0.75 -0.78125 C 0.820312 -0.71875 0.859375 -0.628906 0.859375 -0.515625 C 0.859375 -0.359375 0.800781 -0.226562 0.6875 -0.125 C 0.570312 -0.0195312 0.441406 0.03125 0.296875 0.03125 Z M 0.296875 0.03125 "/></g></g></g></g></g><g clip-path="url(#c543795513)"><path fill="#1156fc" d="M 94.078125 134.460938 L 47.519531 134.460938 C 46.722656 134.460938 45.929688 134.382812 45.148438 134.226562 C 44.363281 134.070312 43.605469 133.835938 42.867188 133.53125 C 42.128906 133.226562 41.425781 132.851562 40.761719 132.40625 C 40.097656 131.960938 39.484375 131.457031 38.921875 130.894531 C 38.355469 130.328125 37.851562 129.714844 37.40625 129.050781 C 36.964844 128.386719 36.589844 127.683594 36.28125 126.945312 C 35.976562 126.210938 35.746094 125.449219 35.589844 124.664062 C 35.433594 123.882812 35.351562 123.089844 35.351562 122.292969 L 35.351562 89.65625 C 35.347656 88.105469 35.636719 86.609375 36.21875 85.167969 C 36.800781 83.730469 37.632812 82.453125 38.714844 81.339844 L 63.621094 55.585938 C 64.085938 55.101562 64.59375 54.667969 65.144531 54.289062 C 65.699219 53.90625 66.28125 53.585938 66.898438 53.324219 C 67.515625 53.0625 68.152344 52.863281 68.808594 52.730469 C 69.464844 52.59375 70.128906 52.527344 70.800781 52.527344 C 71.46875 52.527344 72.132812 52.59375 72.789062 52.730469 C 73.445312 52.863281 74.082031 53.0625 74.699219 53.324219 C 75.316406 53.585938 75.902344 53.90625 76.453125 54.289062 C 77.003906 54.667969 77.511719 55.101562 77.976562 55.585938 L 105.207031 83.742188 C 105.550781 84.09375 105.8125 84.5 105.996094 84.957031 C 106.175781 85.414062 106.265625 85.886719 106.257812 86.382812 C 106.25 86.875 106.148438 87.347656 105.953125 87.796875 C 105.757812 88.25 105.484375 88.648438 105.128906 88.988281 C 104.777344 89.332031 104.371094 89.59375 103.910156 89.773438 C 103.453125 89.953125 102.976562 90.039062 102.484375 90.03125 C 101.992188 90.019531 101.519531 89.917969 101.070312 89.71875 C 100.617188 89.523438 100.222656 89.246094 99.882812 88.890625 L 72.652344 60.742188 C 72.410156 60.488281 72.128906 60.289062 71.808594 60.152344 C 71.488281 60.011719 71.148438 59.941406 70.800781 59.941406 C 70.449219 59.941406 70.113281 60.011719 69.789062 60.152344 C 69.46875 60.289062 69.1875 60.488281 68.949219 60.742188 L 44.039062 86.488281 C 43.183594 87.375 42.761719 88.433594 42.769531 89.664062 L 42.769531 122.292969 C 42.769531 122.605469 42.800781 122.914062 42.863281 123.222656 C 42.921875 123.527344 43.015625 123.824219 43.132812 124.113281 C 43.253906 124.402344 43.398438 124.675781 43.574219 124.9375 C 43.746094 125.195312 43.945312 125.4375 44.164062 125.65625 C 44.386719 125.878906 44.628906 126.078125 44.886719 126.25 C 45.148438 126.421875 45.421875 126.570312 45.710938 126.691406 C 46 126.808594 46.296875 126.902344 46.601562 126.960938 C 46.910156 127.023438 47.21875 127.054688 47.53125 127.054688 L 94.089844 127.054688 C 94.578125 127.054688 95.050781 127.148438 95.507812 127.335938 C 95.960938 127.523438 96.359375 127.792969 96.707031 128.140625 C 97.054688 128.488281 97.324219 128.886719 97.511719 129.339844 C 97.699219 129.792969 97.792969 130.265625 97.792969 130.757812 C 97.792969 131.25 97.699219 131.722656 97.511719 132.175781 C 97.324219 132.628906 97.054688 133.027344 96.707031 133.375 C 96.359375 133.722656 95.960938 133.992188 95.507812 134.179688 C 95.050781 134.367188 94.578125 134.460938 94.089844 134.460938 Z M 94.078125 134.460938 " fill-opacity="1" fill-rule="nonzero"/></g><g clip-path="url(#58398af3ae)"><path fill="#1156fc" d="M 66.042969 116.019531 C 71.738281 116.019531 76.550781 112.160156 78.023438 106.914062 L 90.679688 106.914062 L 90.679688 111.933594 C 90.679688 113.785156 92.183594 115.292969 94.035156 115.292969 C 95.871094 115.292969 97.378906 113.785156 97.378906 111.933594 L 97.378906 106.914062 L 100.527344 106.914062 L 100.527344 111.933594 C 100.527344 113.785156 102.035156 115.292969 103.886719 115.292969 C 105.738281 115.292969 107.246094 113.785156 107.246094 111.933594 L 107.246094 103.554688 C 107.246094 101.703125 105.738281 100.195312 103.886719 100.195312 L 78.023438 100.195312 C 76.550781 94.953125 71.738281 91.089844 66.042969 91.089844 C 59.171875 91.089844 53.578125 96.683594 53.578125 103.554688 C 53.578125 110.429688 59.171875 116.019531 66.042969 116.019531 Z M 66.042969 97.808594 C 69.210938 97.808594 71.789062 100.386719 71.789062 103.554688 C 71.789062 106.722656 69.210938 109.304688 66.042969 109.304688 C 62.875 109.304688 60.296875 106.722656 60.296875 103.554688 C 60.296875 100.386719 62.875 97.808594 66.042969 97.808594 Z M 66.042969 97.808594 " fill-opacity="1" fill-rule="nonzero"/></g></svg>